<mxfile host="app.diagrams.net" modified="2021-12-01T21:40:49.465Z" agent="5.0 (Macintosh)" etag="_u9w1OsL_6Spl5ztM51R" version="15.7.0" type="github">
  <diagram id="9seKA23nWfsKjSaNEKpw" name="Page-1">
    <mxGraphModel dx="951" dy="736" grid="1" gridSize="10" guides="1" tooltips="1" connect="1" arrows="1" fold="1" page="1" pageScale="1" pageWidth="850" pageHeight="1100" math="0" shadow="0">
      <root>
        <mxCell id="0" />
        <mxCell id="1" parent="0" />
        <mxCell id="tOrtGMN_ig_VX2UNMbnm-1" value="" style="rounded=0;whiteSpace=wrap;html=1;" vertex="1" parent="1">
          <mxGeometry x="80" y="160" width="10" height="120" as="geometry" />
        </mxCell>
        <mxCell id="tOrtGMN_ig_VX2UNMbnm-2" value="" style="rounded=0;whiteSpace=wrap;html=1;" vertex="1" parent="1">
          <mxGeometry x="80" y="320" width="10" height="120" as="geometry" />
        </mxCell>
        <mxCell id="tOrtGMN_ig_VX2UNMbnm-3" value="" style="rounded=0;whiteSpace=wrap;html=1;" vertex="1" parent="1">
          <mxGeometry x="160" y="160" width="10" height="120" as="geometry" />
        </mxCell>
        <mxCell id="tOrtGMN_ig_VX2UNMbnm-4" value="" style="rounded=0;whiteSpace=wrap;html=1;" vertex="1" parent="1">
          <mxGeometry x="160" y="320" width="10" height="120" as="geometry" />
        </mxCell>
        <mxCell id="tOrtGMN_ig_VX2UNMbnm-5" value="&lt;font style=&quot;font-size: 18px&quot;&gt;DistilBERT&lt;/font&gt;" style="rounded=1;whiteSpace=wrap;html=1;fillColor=#FFC247;" vertex="1" parent="1">
          <mxGeometry x="260" y="170" width="120" height="100" as="geometry" />
        </mxCell>
        <mxCell id="tOrtGMN_ig_VX2UNMbnm-6" value="&lt;font style=&quot;font-size: 18px&quot;&gt;ResNet-50&lt;/font&gt;" style="rounded=1;whiteSpace=wrap;html=1;fillColor=#A1FFA4;" vertex="1" parent="1">
          <mxGeometry x="260" y="330" width="120" height="100" as="geometry" />
        </mxCell>
        <mxCell id="tOrtGMN_ig_VX2UNMbnm-7" value="" style="rounded=0;whiteSpace=wrap;html=1;" vertex="1" parent="1">
          <mxGeometry x="480" y="170" width="10" height="100" as="geometry" />
        </mxCell>
        <mxCell id="tOrtGMN_ig_VX2UNMbnm-8" value="" style="rounded=0;whiteSpace=wrap;html=1;" vertex="1" parent="1">
          <mxGeometry x="480" y="320" width="10" height="120" as="geometry" />
        </mxCell>
        <mxCell id="tOrtGMN_ig_VX2UNMbnm-9" style="edgeStyle=orthogonalEdgeStyle;rounded=0;orthogonalLoop=1;jettySize=auto;html=1;exitX=0.5;exitY=1;exitDx=0;exitDy=0;" edge="1" parent="1" source="tOrtGMN_ig_VX2UNMbnm-7" target="tOrtGMN_ig_VX2UNMbnm-7">
          <mxGeometry relative="1" as="geometry" />
        </mxCell>
        <mxCell id="tOrtGMN_ig_VX2UNMbnm-12" value="" style="rounded=0;whiteSpace=wrap;html=1;" vertex="1" parent="1">
          <mxGeometry x="570" y="220" width="10" height="160" as="geometry" />
        </mxCell>
        <mxCell id="tOrtGMN_ig_VX2UNMbnm-13" value="" style="rounded=0;whiteSpace=wrap;html=1;" vertex="1" parent="1">
          <mxGeometry x="660" y="260" width="10" height="80" as="geometry" />
        </mxCell>
        <mxCell id="tOrtGMN_ig_VX2UNMbnm-18" value="" style="rounded=0;whiteSpace=wrap;html=1;" vertex="1" parent="1">
          <mxGeometry x="720" y="290" width="10" height="10" as="geometry" />
        </mxCell>
        <mxCell id="tOrtGMN_ig_VX2UNMbnm-19" value="" style="rounded=0;whiteSpace=wrap;html=1;" vertex="1" parent="1">
          <mxGeometry x="720" y="300" width="10" height="10" as="geometry" />
        </mxCell>
        <mxCell id="tOrtGMN_ig_VX2UNMbnm-20" value="" style="shape=flexArrow;endArrow=classic;html=1;rounded=0;entryX=0;entryY=0.5;entryDx=0;entryDy=0;exitX=1;exitY=0.5;exitDx=0;exitDy=0;" edge="1" parent="1" source="tOrtGMN_ig_VX2UNMbnm-3" target="tOrtGMN_ig_VX2UNMbnm-5">
          <mxGeometry width="50" height="50" relative="1" as="geometry">
            <mxPoint x="200" y="270" as="sourcePoint" />
            <mxPoint x="450" y="360" as="targetPoint" />
          </mxGeometry>
        </mxCell>
        <mxCell id="tOrtGMN_ig_VX2UNMbnm-22" value="" style="shape=flexArrow;endArrow=classic;html=1;rounded=0;entryX=0;entryY=0.5;entryDx=0;entryDy=0;exitX=1;exitY=0.5;exitDx=0;exitDy=0;" edge="1" parent="1" source="tOrtGMN_ig_VX2UNMbnm-4" target="tOrtGMN_ig_VX2UNMbnm-6">
          <mxGeometry width="50" height="50" relative="1" as="geometry">
            <mxPoint x="170" y="380" as="sourcePoint" />
            <mxPoint x="160" y="380" as="targetPoint" />
          </mxGeometry>
        </mxCell>
        <mxCell id="tOrtGMN_ig_VX2UNMbnm-23" value="" style="shape=flexArrow;endArrow=classic;html=1;rounded=0;entryX=0;entryY=0.5;entryDx=0;entryDy=0;exitX=1;exitY=0.5;exitDx=0;exitDy=0;" edge="1" parent="1" source="tOrtGMN_ig_VX2UNMbnm-5" target="tOrtGMN_ig_VX2UNMbnm-7">
          <mxGeometry width="50" height="50" relative="1" as="geometry">
            <mxPoint x="400" y="410" as="sourcePoint" />
            <mxPoint x="450" y="360" as="targetPoint" />
          </mxGeometry>
        </mxCell>
        <mxCell id="tOrtGMN_ig_VX2UNMbnm-24" value="" style="shape=flexArrow;endArrow=classic;html=1;rounded=0;entryX=0;entryY=0.5;entryDx=0;entryDy=0;exitX=1;exitY=0.5;exitDx=0;exitDy=0;" edge="1" parent="1" source="tOrtGMN_ig_VX2UNMbnm-6" target="tOrtGMN_ig_VX2UNMbnm-8">
          <mxGeometry width="50" height="50" relative="1" as="geometry">
            <mxPoint x="400" y="410" as="sourcePoint" />
            <mxPoint x="450" y="360" as="targetPoint" />
          </mxGeometry>
        </mxCell>
        <mxCell id="tOrtGMN_ig_VX2UNMbnm-25" value="" style="endArrow=classic;html=1;rounded=0;exitX=1;exitY=0.5;exitDx=0;exitDy=0;entryX=0;entryY=0.5;entryDx=0;entryDy=0;" edge="1" parent="1" source="tOrtGMN_ig_VX2UNMbnm-1" target="tOrtGMN_ig_VX2UNMbnm-3">
          <mxGeometry width="50" height="50" relative="1" as="geometry">
            <mxPoint x="400" y="410" as="sourcePoint" />
            <mxPoint x="450" y="360" as="targetPoint" />
          </mxGeometry>
        </mxCell>
        <mxCell id="tOrtGMN_ig_VX2UNMbnm-26" value="" style="endArrow=classic;html=1;rounded=0;exitX=1;exitY=0.5;exitDx=0;exitDy=0;entryX=0;entryY=0.5;entryDx=0;entryDy=0;" edge="1" parent="1" source="tOrtGMN_ig_VX2UNMbnm-2" target="tOrtGMN_ig_VX2UNMbnm-4">
          <mxGeometry width="50" height="50" relative="1" as="geometry">
            <mxPoint x="400" y="410" as="sourcePoint" />
            <mxPoint x="450" y="360" as="targetPoint" />
          </mxGeometry>
        </mxCell>
        <mxCell id="tOrtGMN_ig_VX2UNMbnm-27" value="" style="endArrow=classic;html=1;rounded=0;exitX=1;exitY=0.5;exitDx=0;exitDy=0;entryX=0;entryY=0.25;entryDx=0;entryDy=0;" edge="1" parent="1" source="tOrtGMN_ig_VX2UNMbnm-7" target="tOrtGMN_ig_VX2UNMbnm-12">
          <mxGeometry width="50" height="50" relative="1" as="geometry">
            <mxPoint x="400" y="410" as="sourcePoint" />
            <mxPoint x="450" y="360" as="targetPoint" />
          </mxGeometry>
        </mxCell>
        <mxCell id="tOrtGMN_ig_VX2UNMbnm-28" value="" style="endArrow=classic;html=1;rounded=0;exitX=1;exitY=0.5;exitDx=0;exitDy=0;entryX=0;entryY=0.75;entryDx=0;entryDy=0;" edge="1" parent="1" source="tOrtGMN_ig_VX2UNMbnm-8" target="tOrtGMN_ig_VX2UNMbnm-12">
          <mxGeometry width="50" height="50" relative="1" as="geometry">
            <mxPoint x="400" y="410" as="sourcePoint" />
            <mxPoint x="450" y="360" as="targetPoint" />
          </mxGeometry>
        </mxCell>
        <mxCell id="tOrtGMN_ig_VX2UNMbnm-29" value="" style="endArrow=classic;html=1;rounded=0;entryX=0;entryY=0.75;entryDx=0;entryDy=0;exitX=1;exitY=0.25;exitDx=0;exitDy=0;" edge="1" parent="1" source="tOrtGMN_ig_VX2UNMbnm-12" target="tOrtGMN_ig_VX2UNMbnm-13">
          <mxGeometry width="50" height="50" relative="1" as="geometry">
            <mxPoint x="400" y="410" as="sourcePoint" />
            <mxPoint x="450" y="360" as="targetPoint" />
          </mxGeometry>
        </mxCell>
        <mxCell id="tOrtGMN_ig_VX2UNMbnm-30" value="" style="endArrow=classic;html=1;rounded=0;entryX=0;entryY=0.25;entryDx=0;entryDy=0;exitX=1;exitY=0.75;exitDx=0;exitDy=0;" edge="1" parent="1" source="tOrtGMN_ig_VX2UNMbnm-12" target="tOrtGMN_ig_VX2UNMbnm-13">
          <mxGeometry width="50" height="50" relative="1" as="geometry">
            <mxPoint x="400" y="410" as="sourcePoint" />
            <mxPoint x="450" y="360" as="targetPoint" />
          </mxGeometry>
        </mxCell>
        <mxCell id="tOrtGMN_ig_VX2UNMbnm-31" value="" style="endArrow=classic;html=1;rounded=0;entryX=0;entryY=0;entryDx=0;entryDy=0;exitX=1;exitY=0.25;exitDx=0;exitDy=0;" edge="1" parent="1" source="tOrtGMN_ig_VX2UNMbnm-13" target="tOrtGMN_ig_VX2UNMbnm-18">
          <mxGeometry width="50" height="50" relative="1" as="geometry">
            <mxPoint x="690" y="260" as="sourcePoint" />
            <mxPoint x="450" y="360" as="targetPoint" />
          </mxGeometry>
        </mxCell>
        <mxCell id="tOrtGMN_ig_VX2UNMbnm-32" value="" style="endArrow=classic;html=1;rounded=0;entryX=0;entryY=1;entryDx=0;entryDy=0;exitX=1;exitY=0.75;exitDx=0;exitDy=0;" edge="1" parent="1" source="tOrtGMN_ig_VX2UNMbnm-13" target="tOrtGMN_ig_VX2UNMbnm-19">
          <mxGeometry width="50" height="50" relative="1" as="geometry">
            <mxPoint x="400" y="410" as="sourcePoint" />
            <mxPoint x="450" y="360" as="targetPoint" />
          </mxGeometry>
        </mxCell>
        <mxCell id="tOrtGMN_ig_VX2UNMbnm-33" value="raw image" style="text;html=1;align=center;verticalAlign=middle;resizable=0;points=[];autosize=1;strokeColor=none;fillColor=none;fontSize=18;" vertex="1" parent="1">
          <mxGeometry x="25" y="440" width="100" height="30" as="geometry" />
        </mxCell>
        <mxCell id="tOrtGMN_ig_VX2UNMbnm-34" value="raw text" style="text;html=1;align=center;verticalAlign=middle;resizable=0;points=[];autosize=1;strokeColor=none;fillColor=none;fontSize=18;rotation=0;" vertex="1" parent="1">
          <mxGeometry x="45" y="130" width="80" height="30" as="geometry" />
        </mxCell>
        <mxCell id="tOrtGMN_ig_VX2UNMbnm-35" value="&lt;div&gt;tokenized&lt;/div&gt;&lt;div&gt;text&lt;br&gt;&lt;/div&gt;" style="text;html=1;align=center;verticalAlign=middle;resizable=0;points=[];autosize=1;strokeColor=none;fillColor=none;fontSize=18;" vertex="1" parent="1">
          <mxGeometry x="120" y="110" width="90" height="50" as="geometry" />
        </mxCell>
        <mxCell id="tOrtGMN_ig_VX2UNMbnm-36" value="&lt;div&gt;processed&lt;br&gt;&lt;/div&gt;&lt;div&gt;image&lt;br&gt;&lt;/div&gt;&lt;div&gt;(3, 224, 224)&lt;br&gt;&lt;/div&gt;" style="text;html=1;align=center;verticalAlign=middle;resizable=0;points=[];autosize=1;strokeColor=none;fillColor=none;fontSize=18;" vertex="1" parent="1">
          <mxGeometry x="105" y="440" width="120" height="70" as="geometry" />
        </mxCell>
        <mxCell id="tOrtGMN_ig_VX2UNMbnm-37" value="&lt;div&gt;image encoding&lt;/div&gt;&lt;div&gt;(1000, 1)&lt;br&gt;&lt;/div&gt;" style="text;html=1;align=center;verticalAlign=middle;resizable=0;points=[];autosize=1;strokeColor=none;fillColor=none;fontSize=18;" vertex="1" parent="1">
          <mxGeometry x="400" y="445" width="140" height="50" as="geometry" />
        </mxCell>
        <mxCell id="tOrtGMN_ig_VX2UNMbnm-38" value="&lt;div&gt;text embedding&lt;/div&gt;&lt;div&gt;(768, 1)&lt;br&gt;&lt;/div&gt;" style="text;html=1;align=center;verticalAlign=middle;resizable=0;points=[];autosize=1;strokeColor=none;fillColor=none;fontSize=18;" vertex="1" parent="1">
          <mxGeometry x="415" y="120" width="140" height="50" as="geometry" />
        </mxCell>
        <mxCell id="tOrtGMN_ig_VX2UNMbnm-39" value="&lt;div&gt;concatenated&lt;/div&gt;&lt;div&gt;embedding&lt;/div&gt;&lt;div&gt;(1768, 1)&lt;br&gt;&lt;/div&gt;" style="text;html=1;align=center;verticalAlign=middle;resizable=0;points=[];autosize=1;strokeColor=none;fillColor=none;fontSize=18;" vertex="1" parent="1">
          <mxGeometry x="530" y="150" width="120" height="70" as="geometry" />
        </mxCell>
        <mxCell id="tOrtGMN_ig_VX2UNMbnm-41" value="&lt;div&gt;hidden layer&lt;/div&gt;&lt;div&gt;(100, 1)&lt;br&gt;&lt;/div&gt;" style="text;html=1;align=center;verticalAlign=middle;resizable=0;points=[];autosize=1;strokeColor=none;fillColor=none;fontSize=18;" vertex="1" parent="1">
          <mxGeometry x="615" y="215" width="110" height="50" as="geometry" />
        </mxCell>
        <mxCell id="tOrtGMN_ig_VX2UNMbnm-42" value="&lt;div&gt;output&lt;/div&gt;&lt;div&gt;(2, 1)&lt;br&gt;&lt;/div&gt;" style="text;html=1;align=center;verticalAlign=middle;resizable=0;points=[];autosize=1;strokeColor=none;fillColor=none;fontSize=18;" vertex="1" parent="1">
          <mxGeometry x="690" y="320" width="70" height="50" as="geometry" />
        </mxCell>
        <mxCell id="tOrtGMN_ig_VX2UNMbnm-43" value="" style="rounded=0;whiteSpace=wrap;html=1;" vertex="1" parent="1">
          <mxGeometry x="80" y="690" width="10" height="120" as="geometry" />
        </mxCell>
        <mxCell id="tOrtGMN_ig_VX2UNMbnm-44" value="" style="rounded=0;whiteSpace=wrap;html=1;" vertex="1" parent="1">
          <mxGeometry x="80" y="850" width="10" height="120" as="geometry" />
        </mxCell>
        <mxCell id="tOrtGMN_ig_VX2UNMbnm-45" value="" style="rounded=0;whiteSpace=wrap;html=1;" vertex="1" parent="1">
          <mxGeometry x="160" y="690" width="10" height="120" as="geometry" />
        </mxCell>
        <mxCell id="tOrtGMN_ig_VX2UNMbnm-46" value="" style="rounded=0;whiteSpace=wrap;html=1;" vertex="1" parent="1">
          <mxGeometry x="160" y="850" width="10" height="120" as="geometry" />
        </mxCell>
        <mxCell id="tOrtGMN_ig_VX2UNMbnm-47" value="&lt;font style=&quot;font-size: 18px&quot;&gt;DistilBERT&lt;/font&gt;" style="rounded=1;whiteSpace=wrap;html=1;fillColor=#FFC247;" vertex="1" parent="1">
          <mxGeometry x="260" y="700" width="120" height="100" as="geometry" />
        </mxCell>
        <mxCell id="tOrtGMN_ig_VX2UNMbnm-48" value="&lt;font style=&quot;font-size: 18px&quot;&gt;ResNet-50&lt;/font&gt;" style="rounded=1;whiteSpace=wrap;html=1;fillColor=#A1FFA4;" vertex="1" parent="1">
          <mxGeometry x="260" y="860" width="120" height="100" as="geometry" />
        </mxCell>
        <mxCell id="tOrtGMN_ig_VX2UNMbnm-49" value="" style="rounded=0;whiteSpace=wrap;html=1;" vertex="1" parent="1">
          <mxGeometry x="480" y="700" width="10" height="100" as="geometry" />
        </mxCell>
        <mxCell id="tOrtGMN_ig_VX2UNMbnm-50" value="" style="rounded=0;whiteSpace=wrap;html=1;" vertex="1" parent="1">
          <mxGeometry x="480" y="850" width="10" height="120" as="geometry" />
        </mxCell>
        <mxCell id="tOrtGMN_ig_VX2UNMbnm-51" style="edgeStyle=orthogonalEdgeStyle;rounded=0;orthogonalLoop=1;jettySize=auto;html=1;exitX=0.5;exitY=1;exitDx=0;exitDy=0;" edge="1" source="tOrtGMN_ig_VX2UNMbnm-49" target="tOrtGMN_ig_VX2UNMbnm-49" parent="1">
          <mxGeometry relative="1" as="geometry" />
        </mxCell>
        <mxCell id="tOrtGMN_ig_VX2UNMbnm-53" value="" style="rounded=0;whiteSpace=wrap;html=1;" vertex="1" parent="1">
          <mxGeometry x="700" y="800" width="10" height="80" as="geometry" />
        </mxCell>
        <mxCell id="tOrtGMN_ig_VX2UNMbnm-54" value="" style="rounded=0;whiteSpace=wrap;html=1;" vertex="1" parent="1">
          <mxGeometry x="760" y="830" width="10" height="10" as="geometry" />
        </mxCell>
        <mxCell id="tOrtGMN_ig_VX2UNMbnm-55" value="" style="rounded=0;whiteSpace=wrap;html=1;" vertex="1" parent="1">
          <mxGeometry x="760" y="840" width="10" height="10" as="geometry" />
        </mxCell>
        <mxCell id="tOrtGMN_ig_VX2UNMbnm-56" value="" style="shape=flexArrow;endArrow=classic;html=1;rounded=0;entryX=0;entryY=0.5;entryDx=0;entryDy=0;exitX=1;exitY=0.5;exitDx=0;exitDy=0;" edge="1" source="tOrtGMN_ig_VX2UNMbnm-45" target="tOrtGMN_ig_VX2UNMbnm-47" parent="1">
          <mxGeometry width="50" height="50" relative="1" as="geometry">
            <mxPoint x="200" y="800" as="sourcePoint" />
            <mxPoint x="450" y="890" as="targetPoint" />
          </mxGeometry>
        </mxCell>
        <mxCell id="tOrtGMN_ig_VX2UNMbnm-57" value="" style="shape=flexArrow;endArrow=classic;html=1;rounded=0;entryX=0;entryY=0.5;entryDx=0;entryDy=0;exitX=1;exitY=0.5;exitDx=0;exitDy=0;" edge="1" source="tOrtGMN_ig_VX2UNMbnm-46" target="tOrtGMN_ig_VX2UNMbnm-48" parent="1">
          <mxGeometry width="50" height="50" relative="1" as="geometry">
            <mxPoint x="170" y="910" as="sourcePoint" />
            <mxPoint x="160" y="910" as="targetPoint" />
          </mxGeometry>
        </mxCell>
        <mxCell id="tOrtGMN_ig_VX2UNMbnm-58" value="" style="shape=flexArrow;endArrow=classic;html=1;rounded=0;entryX=0;entryY=0.5;entryDx=0;entryDy=0;exitX=1;exitY=0.5;exitDx=0;exitDy=0;" edge="1" source="tOrtGMN_ig_VX2UNMbnm-47" target="tOrtGMN_ig_VX2UNMbnm-49" parent="1">
          <mxGeometry width="50" height="50" relative="1" as="geometry">
            <mxPoint x="400" y="940" as="sourcePoint" />
            <mxPoint x="450" y="890" as="targetPoint" />
          </mxGeometry>
        </mxCell>
        <mxCell id="tOrtGMN_ig_VX2UNMbnm-59" value="" style="shape=flexArrow;endArrow=classic;html=1;rounded=0;entryX=0;entryY=0.5;entryDx=0;entryDy=0;exitX=1;exitY=0.5;exitDx=0;exitDy=0;" edge="1" source="tOrtGMN_ig_VX2UNMbnm-48" target="tOrtGMN_ig_VX2UNMbnm-50" parent="1">
          <mxGeometry width="50" height="50" relative="1" as="geometry">
            <mxPoint x="400" y="940" as="sourcePoint" />
            <mxPoint x="450" y="890" as="targetPoint" />
          </mxGeometry>
        </mxCell>
        <mxCell id="tOrtGMN_ig_VX2UNMbnm-60" value="" style="endArrow=classic;html=1;rounded=0;exitX=1;exitY=0.5;exitDx=0;exitDy=0;entryX=0;entryY=0.5;entryDx=0;entryDy=0;" edge="1" source="tOrtGMN_ig_VX2UNMbnm-43" target="tOrtGMN_ig_VX2UNMbnm-45" parent="1">
          <mxGeometry width="50" height="50" relative="1" as="geometry">
            <mxPoint x="400" y="940" as="sourcePoint" />
            <mxPoint x="450" y="890" as="targetPoint" />
          </mxGeometry>
        </mxCell>
        <mxCell id="tOrtGMN_ig_VX2UNMbnm-61" value="" style="endArrow=classic;html=1;rounded=0;exitX=1;exitY=0.5;exitDx=0;exitDy=0;entryX=0;entryY=0.5;entryDx=0;entryDy=0;" edge="1" source="tOrtGMN_ig_VX2UNMbnm-44" target="tOrtGMN_ig_VX2UNMbnm-46" parent="1">
          <mxGeometry width="50" height="50" relative="1" as="geometry">
            <mxPoint x="400" y="940" as="sourcePoint" />
            <mxPoint x="450" y="890" as="targetPoint" />
          </mxGeometry>
        </mxCell>
        <mxCell id="tOrtGMN_ig_VX2UNMbnm-64" value="" style="endArrow=classic;html=1;rounded=0;entryX=0;entryY=0.75;entryDx=0;entryDy=0;exitX=1;exitY=0.25;exitDx=0;exitDy=0;" edge="1" source="tOrtGMN_ig_VX2UNMbnm-89" target="tOrtGMN_ig_VX2UNMbnm-53" parent="1">
          <mxGeometry width="50" height="50" relative="1" as="geometry">
            <mxPoint x="740" y="815" as="sourcePoint" />
            <mxPoint x="580" y="915" as="targetPoint" />
          </mxGeometry>
        </mxCell>
        <mxCell id="tOrtGMN_ig_VX2UNMbnm-65" value="" style="endArrow=classic;html=1;rounded=0;entryX=0;entryY=0.25;entryDx=0;entryDy=0;exitX=1;exitY=0.75;exitDx=0;exitDy=0;" edge="1" source="tOrtGMN_ig_VX2UNMbnm-89" target="tOrtGMN_ig_VX2UNMbnm-53" parent="1">
          <mxGeometry width="50" height="50" relative="1" as="geometry">
            <mxPoint x="740" y="895" as="sourcePoint" />
            <mxPoint x="580" y="915" as="targetPoint" />
          </mxGeometry>
        </mxCell>
        <mxCell id="tOrtGMN_ig_VX2UNMbnm-66" value="" style="endArrow=classic;html=1;rounded=0;entryX=0;entryY=0;entryDx=0;entryDy=0;exitX=1;exitY=0.25;exitDx=0;exitDy=0;" edge="1" source="tOrtGMN_ig_VX2UNMbnm-53" target="tOrtGMN_ig_VX2UNMbnm-54" parent="1">
          <mxGeometry width="50" height="50" relative="1" as="geometry">
            <mxPoint x="820" y="815" as="sourcePoint" />
            <mxPoint x="580" y="915" as="targetPoint" />
          </mxGeometry>
        </mxCell>
        <mxCell id="tOrtGMN_ig_VX2UNMbnm-67" value="" style="endArrow=classic;html=1;rounded=0;entryX=0;entryY=1;entryDx=0;entryDy=0;exitX=1;exitY=0.75;exitDx=0;exitDy=0;" edge="1" source="tOrtGMN_ig_VX2UNMbnm-53" target="tOrtGMN_ig_VX2UNMbnm-55" parent="1">
          <mxGeometry width="50" height="50" relative="1" as="geometry">
            <mxPoint x="530" y="965" as="sourcePoint" />
            <mxPoint x="580" y="915" as="targetPoint" />
          </mxGeometry>
        </mxCell>
        <mxCell id="tOrtGMN_ig_VX2UNMbnm-68" value="raw text" style="text;html=1;align=center;verticalAlign=middle;resizable=0;points=[];autosize=1;strokeColor=none;fillColor=none;fontSize=18;rotation=0;" vertex="1" parent="1">
          <mxGeometry x="45" y="660" width="80" height="30" as="geometry" />
        </mxCell>
        <mxCell id="tOrtGMN_ig_VX2UNMbnm-69" value="&lt;div&gt;tokenized&lt;/div&gt;&lt;div&gt;text&lt;br&gt;&lt;/div&gt;" style="text;html=1;align=center;verticalAlign=middle;resizable=0;points=[];autosize=1;strokeColor=none;fillColor=none;fontSize=18;" vertex="1" parent="1">
          <mxGeometry x="120" y="640" width="90" height="50" as="geometry" />
        </mxCell>
        <mxCell id="tOrtGMN_ig_VX2UNMbnm-70" value="&lt;div&gt;processed&lt;br&gt;&lt;/div&gt;&lt;div&gt;image&lt;br&gt;&lt;/div&gt;&lt;div&gt;(3, 224, 224)&lt;br&gt;&lt;/div&gt;" style="text;html=1;align=center;verticalAlign=middle;resizable=0;points=[];autosize=1;strokeColor=none;fillColor=none;fontSize=18;" vertex="1" parent="1">
          <mxGeometry x="105" y="970" width="120" height="70" as="geometry" />
        </mxCell>
        <mxCell id="tOrtGMN_ig_VX2UNMbnm-71" value="&lt;div&gt;image encoding&lt;/div&gt;&lt;div&gt;(1000, 1)&lt;br&gt;&lt;/div&gt;" style="text;html=1;align=center;verticalAlign=middle;resizable=0;points=[];autosize=1;strokeColor=none;fillColor=none;fontSize=18;" vertex="1" parent="1">
          <mxGeometry x="400" y="975" width="140" height="50" as="geometry" />
        </mxCell>
        <mxCell id="tOrtGMN_ig_VX2UNMbnm-72" value="&lt;div&gt;text embedding&lt;/div&gt;&lt;div&gt;(768, 1)&lt;br&gt;&lt;/div&gt;" style="text;html=1;align=center;verticalAlign=middle;resizable=0;points=[];autosize=1;strokeColor=none;fillColor=none;fontSize=18;" vertex="1" parent="1">
          <mxGeometry x="415" y="650" width="140" height="50" as="geometry" />
        </mxCell>
        <mxCell id="tOrtGMN_ig_VX2UNMbnm-74" value="&lt;div&gt;hidden layer&lt;/div&gt;&lt;div&gt;(100, 1)&lt;br&gt;&lt;/div&gt;" style="text;html=1;align=center;verticalAlign=middle;resizable=0;points=[];autosize=1;strokeColor=none;fillColor=none;fontSize=18;" vertex="1" parent="1">
          <mxGeometry x="660" y="740" width="110" height="50" as="geometry" />
        </mxCell>
        <mxCell id="tOrtGMN_ig_VX2UNMbnm-75" value="&lt;div&gt;output&lt;/div&gt;&lt;div&gt;(2, 1)&lt;br&gt;&lt;/div&gt;" style="text;html=1;align=center;verticalAlign=middle;resizable=0;points=[];autosize=1;strokeColor=none;fillColor=none;fontSize=18;" vertex="1" parent="1">
          <mxGeometry x="730" y="880" width="70" height="50" as="geometry" />
        </mxCell>
        <mxCell id="tOrtGMN_ig_VX2UNMbnm-80" value="" style="rounded=0;whiteSpace=wrap;html=1;" vertex="1" parent="1">
          <mxGeometry x="580" y="690" width="10" height="120" as="geometry" />
        </mxCell>
        <mxCell id="tOrtGMN_ig_VX2UNMbnm-82" value="FC" style="text;html=1;align=center;verticalAlign=middle;resizable=0;points=[];autosize=1;strokeColor=none;fillColor=none;fontSize=18;" vertex="1" parent="1">
          <mxGeometry x="600" y="330" width="40" height="30" as="geometry" />
        </mxCell>
        <mxCell id="tOrtGMN_ig_VX2UNMbnm-83" value="FC" style="text;html=1;align=center;verticalAlign=middle;resizable=0;points=[];autosize=1;strokeColor=none;fillColor=none;fontSize=18;" vertex="1" parent="1">
          <mxGeometry x="670" y="285" width="40" height="30" as="geometry" />
        </mxCell>
        <mxCell id="tOrtGMN_ig_VX2UNMbnm-85" value="" style="endArrow=classic;html=1;rounded=0;fontSize=18;entryX=0.1;entryY=0.833;entryDx=0;entryDy=0;entryPerimeter=0;exitX=1;exitY=0.25;exitDx=0;exitDy=0;" edge="1" parent="1" source="tOrtGMN_ig_VX2UNMbnm-49" target="tOrtGMN_ig_VX2UNMbnm-80">
          <mxGeometry width="50" height="50" relative="1" as="geometry">
            <mxPoint x="400" y="870" as="sourcePoint" />
            <mxPoint x="450" y="820" as="targetPoint" />
          </mxGeometry>
        </mxCell>
        <mxCell id="tOrtGMN_ig_VX2UNMbnm-86" value="" style="endArrow=classic;html=1;rounded=0;fontSize=18;exitX=1;exitY=0.75;exitDx=0;exitDy=0;entryX=0;entryY=0.158;entryDx=0;entryDy=0;entryPerimeter=0;" edge="1" parent="1" source="tOrtGMN_ig_VX2UNMbnm-49" target="tOrtGMN_ig_VX2UNMbnm-80">
          <mxGeometry width="50" height="50" relative="1" as="geometry">
            <mxPoint x="400" y="870" as="sourcePoint" />
            <mxPoint x="450" y="820" as="targetPoint" />
          </mxGeometry>
        </mxCell>
        <mxCell id="tOrtGMN_ig_VX2UNMbnm-87" value="FC" style="text;html=1;align=center;verticalAlign=middle;resizable=0;points=[];autosize=1;strokeColor=none;fillColor=none;fontSize=18;" vertex="1" parent="1">
          <mxGeometry x="500" y="780" width="40" height="30" as="geometry" />
        </mxCell>
        <mxCell id="tOrtGMN_ig_VX2UNMbnm-88" value="(1000, 1)" style="text;html=1;align=center;verticalAlign=middle;resizable=0;points=[];autosize=1;strokeColor=none;fillColor=none;fontSize=18;" vertex="1" parent="1">
          <mxGeometry x="550" y="660" width="90" height="30" as="geometry" />
        </mxCell>
        <mxCell id="tOrtGMN_ig_VX2UNMbnm-89" value="" style="rounded=0;whiteSpace=wrap;html=1;" vertex="1" parent="1">
          <mxGeometry x="640" y="780" width="10" height="120" as="geometry" />
        </mxCell>
        <mxCell id="tOrtGMN_ig_VX2UNMbnm-90" value="" style="endArrow=classic;html=1;rounded=0;fontSize=18;entryX=0;entryY=0.25;entryDx=0;entryDy=0;exitX=1;exitY=0.5;exitDx=0;exitDy=0;" edge="1" parent="1" source="tOrtGMN_ig_VX2UNMbnm-80" target="tOrtGMN_ig_VX2UNMbnm-89">
          <mxGeometry width="50" height="50" relative="1" as="geometry">
            <mxPoint x="400" y="870" as="sourcePoint" />
            <mxPoint x="450" y="820" as="targetPoint" />
          </mxGeometry>
        </mxCell>
        <mxCell id="tOrtGMN_ig_VX2UNMbnm-91" value="" style="endArrow=classic;html=1;rounded=0;fontSize=18;entryX=0;entryY=0.75;entryDx=0;entryDy=0;exitX=1;exitY=0.5;exitDx=0;exitDy=0;" edge="1" parent="1" source="tOrtGMN_ig_VX2UNMbnm-50" target="tOrtGMN_ig_VX2UNMbnm-89">
          <mxGeometry width="50" height="50" relative="1" as="geometry">
            <mxPoint x="400" y="870" as="sourcePoint" />
            <mxPoint x="450" y="820" as="targetPoint" />
          </mxGeometry>
        </mxCell>
        <mxCell id="tOrtGMN_ig_VX2UNMbnm-92" value="&lt;div&gt;average&lt;/div&gt;&lt;div&gt;embeddings&lt;/div&gt;&lt;div&gt;(1000, 1)&lt;br&gt;&lt;/div&gt;" style="text;html=1;align=center;verticalAlign=middle;resizable=0;points=[];autosize=1;strokeColor=none;fillColor=none;fontSize=18;" vertex="1" parent="1">
          <mxGeometry x="590" y="905" width="110" height="70" as="geometry" />
        </mxCell>
      </root>
    </mxGraphModel>
  </diagram>
</mxfile>
